<svg width="103" height="33" viewBox="0 0 103 33" fill="none" xmlns="http://www.w3.org/2000/svg">
<path d="M51.1123 28.361C57.4636 28.361 62.6123 23.2122 62.6123 16.861C62.6123 10.5097 57.4636 5.36096 51.1123 5.36096C44.761 5.36096 39.6123 10.5097 39.6123 16.861C39.6123 23.2122 44.761 28.361 51.1123 28.361Z" fill="#D4D700"/>
<path d="M40.9183 30.942C39.6663 30.942 38.6943 30.606 38.0303 29.942C36.3033 28.215 36.8813 24.275 39.4663 19.716C39.4873 19.805 39.5103 19.893 39.5333 19.981L40.2893 22.016C40.4403 22.333 40.5923 22.62 40.7533 22.897C39.4963 25.306 39.2943 26.961 40.1523 27.819C40.4973 28.164 40.9823 28.339 41.5933 28.339C44.2263 28.339 49.3293 25.005 54.2933 20.041C57.1563 17.178 59.5543 14.184 61.0443 11.609C62.6603 8.81696 63.0163 6.84196 62.0713 5.89896C61.7263 5.55396 61.2413 5.37896 60.6303 5.37896C59.7403 5.37896 58.5683 5.75596 57.1433 6.49996C56.7863 6.29796 56.3363 6.06696 56.3363 6.06696L54.2263 5.28296C54.1393 5.25996 54.0533 5.23796 53.9683 5.21696C56.7463 3.63796 59.3193 2.77896 61.3063 2.77896C62.5583 2.77896 63.5303 3.11496 64.1943 3.77896C65.5343 5.11896 65.5173 7.81296 64.1493 11.172C62.7053 14.718 59.9593 18.622 56.4163 22.164C51.0833 27.497 45.0003 30.942 40.9183 30.942Z" fill="#48CAE4"/>
<path d="M70.5083 14.937C70.5083 15.577 70.3163 16.109 69.9323 16.533C69.5483 16.957 68.9363 17.241 68.0963 17.385L70.7483 20.577C70.9643 20.841 71.2003 21.033 71.4563 21.153C71.7203 21.265 72.0323 21.349 72.3923 21.405V21.861H70.0763L67.1363 18.093C67.0323 17.957 66.9323 17.849 66.8363 17.769C66.7483 17.689 66.6523 17.629 66.5483 17.589C66.4523 17.541 66.3363 17.513 66.2003 17.505C66.0723 17.489 65.9163 17.481 65.7323 17.481V19.977C65.7323 20.273 65.7483 20.517 65.7803 20.709C65.8203 20.893 65.8963 21.037 66.0083 21.141C66.1283 21.245 66.2963 21.317 66.5123 21.357C66.7363 21.389 67.0283 21.405 67.3883 21.405V21.861H63.1523V21.405C63.4323 21.397 63.6563 21.373 63.8243 21.333C64.0003 21.293 64.1363 21.225 64.2323 21.129C64.3283 21.033 64.3923 20.897 64.4243 20.721C64.4563 20.545 64.4723 20.317 64.4723 20.037V14.445C64.4723 14.165 64.4563 13.941 64.4243 13.773C64.4003 13.597 64.3443 13.461 64.2563 13.365C64.1763 13.261 64.0563 13.193 63.8963 13.161C63.7363 13.121 63.5283 13.093 63.2723 13.077V12.621H67.0403C68.1443 12.621 68.9963 12.825 69.5963 13.233C70.2043 13.641 70.5083 14.209 70.5083 14.937ZM65.7323 16.881H66.5843C67.3843 16.881 67.9763 16.737 68.3603 16.449C68.7523 16.153 68.9483 15.669 68.9483 14.997C68.9483 14.349 68.7923 13.885 68.4803 13.605C68.1763 13.325 67.6963 13.185 67.0403 13.185H65.9363C65.8003 13.185 65.7323 13.253 65.7323 13.389V16.881ZM72.5253 21.861V21.405C72.8373 21.397 73.0853 21.373 73.2693 21.333C73.4613 21.293 73.6053 21.225 73.7013 21.129C73.8053 21.033 73.8733 20.897 73.9053 20.721C73.9453 20.545 73.9653 20.317 73.9653 20.037V14.445C73.9653 14.165 73.9493 13.941 73.9173 13.773C73.8933 13.597 73.8373 13.461 73.7493 13.365C73.6693 13.261 73.5493 13.193 73.3893 13.161C73.2293 13.121 73.0213 13.093 72.7653 13.077V12.621H76.3533C77.4333 12.621 78.2733 12.813 78.8733 13.197C79.4733 13.581 79.7733 14.121 79.7733 14.817C79.7733 15.345 79.6053 15.777 79.2693 16.113C78.9413 16.449 78.4173 16.725 77.6973 16.941V16.989C77.9453 17.013 78.1613 17.041 78.3453 17.073C78.5293 17.105 78.6933 17.145 78.8373 17.193C78.9813 17.233 79.1133 17.285 79.2333 17.349C79.3613 17.413 79.4853 17.485 79.6053 17.565C80.3173 18.069 80.6733 18.701 80.6733 19.461C80.6733 19.885 80.5533 20.281 80.3133 20.649C80.0813 21.009 79.7533 21.293 79.3293 21.501C79.1933 21.573 79.0533 21.633 78.9093 21.681C78.7653 21.721 78.5973 21.757 78.4053 21.789C78.2133 21.813 77.9893 21.833 77.7333 21.849C77.4853 21.857 77.1893 21.861 76.8453 21.861H72.5253ZM76.8813 21.345C78.3293 21.345 79.0533 20.725 79.0533 19.485C79.0533 18.581 78.6813 17.949 77.9373 17.589C77.8093 17.533 77.6853 17.485 77.5653 17.445C77.4453 17.405 77.3053 17.377 77.1453 17.361C76.9853 17.337 76.7933 17.321 76.5693 17.313C76.3533 17.305 76.0853 17.301 75.7653 17.301H75.2253V19.977C75.2253 20.465 75.3533 20.817 75.6093 21.033C75.8653 21.241 76.2893 21.345 76.8813 21.345ZM75.8973 16.701C76.1453 16.701 76.3533 16.697 76.5213 16.689C76.6893 16.681 76.8333 16.669 76.9533 16.653C77.0733 16.629 77.1773 16.601 77.2653 16.569C77.3613 16.529 77.4573 16.477 77.5533 16.413C77.8093 16.253 77.9893 16.061 78.0933 15.837C78.2053 15.613 78.2613 15.321 78.2613 14.961C78.2613 14.329 78.1053 13.877 77.7933 13.605C77.4893 13.325 77.0093 13.185 76.3533 13.185H75.4293C75.2933 13.185 75.2253 13.253 75.2253 13.389V16.701H75.8973ZM84.3182 19.593C84.3182 19.993 84.3342 20.309 84.3662 20.541C84.3982 20.773 84.4582 20.953 84.5462 21.081C84.6422 21.209 84.7742 21.293 84.9422 21.333C85.1182 21.373 85.3462 21.397 85.6262 21.405V21.861H81.7382V21.405C82.0182 21.397 82.2422 21.373 82.4102 21.333C82.5862 21.285 82.7222 21.201 82.8182 21.081C82.9142 20.961 82.9782 20.793 83.0102 20.577C83.0422 20.353 83.0582 20.053 83.0582 19.677V14.805C83.0582 14.469 83.0422 14.193 83.0102 13.977C82.9862 13.753 82.9302 13.577 82.8422 13.449C82.7622 13.321 82.6422 13.233 82.4822 13.185C82.3222 13.129 82.1142 13.093 81.8582 13.077V12.621H85.5062V13.077C85.2502 13.085 85.0422 13.117 84.8822 13.173C84.7302 13.229 84.6102 13.325 84.5222 13.461C84.4422 13.589 84.3862 13.769 84.3542 14.001C84.3302 14.233 84.3182 14.529 84.3182 14.889V19.593ZM95.6107 14.913H95.1187C95.0947 14.569 95.0387 14.281 94.9507 14.049C94.8627 13.817 94.7347 13.637 94.5667 13.509C94.4067 13.373 94.2027 13.277 93.9547 13.221C93.7067 13.165 93.4107 13.137 93.0667 13.137C92.7707 13.137 92.5307 13.145 92.3467 13.161C92.1707 13.169 92.0347 13.189 91.9387 13.221C91.8427 13.253 91.7787 13.293 91.7467 13.341C91.7227 13.381 91.7107 13.437 91.7107 13.509V19.929C91.7107 20.185 91.7267 20.405 91.7587 20.589C91.7987 20.773 91.8707 20.925 91.9747 21.045C92.0867 21.157 92.2427 21.245 92.4427 21.309C92.6507 21.365 92.9227 21.397 93.2587 21.405V21.861H88.7227V21.405C89.0587 21.397 89.3307 21.365 89.5387 21.309C89.7467 21.245 89.9027 21.157 90.0067 21.045C90.1187 20.925 90.1907 20.773 90.2227 20.589C90.2627 20.405 90.2827 20.185 90.2827 19.929V13.509C90.2827 13.437 90.2667 13.381 90.2347 13.341C90.2107 13.293 90.1547 13.253 90.0667 13.221C89.9867 13.189 89.8707 13.169 89.7187 13.161C89.5667 13.145 89.3627 13.137 89.1067 13.137C88.7947 13.137 88.5027 13.149 88.2307 13.173C87.9667 13.197 87.7347 13.269 87.5347 13.389C87.3427 13.501 87.1867 13.677 87.0667 13.917C86.9467 14.157 86.8827 14.489 86.8747 14.913H86.4307V12.621H95.4907L95.6107 14.913Z" fill="black"/>
<g filter="url(#filter0_d_11_46)">
<path d="M12.4043 20.861H4.6523V20.405C4.9323 20.397 5.1563 20.373 5.3243 20.333C5.5003 20.293 5.6363 20.225 5.7323 20.129C5.8283 20.033 5.8923 19.897 5.9243 19.721C5.9563 19.545 5.9723 19.317 5.9723 19.037V13.445C5.9723 13.165 5.9563 12.941 5.9243 12.773C5.9003 12.597 5.8443 12.461 5.7563 12.365C5.6763 12.261 5.5563 12.193 5.3963 12.161C5.2363 12.121 5.0283 12.093 4.7723 12.077V11.621H8.42031V12.077C8.1643 12.085 7.9563 12.109 7.7963 12.149C7.6443 12.189 7.5243 12.261 7.4363 12.365C7.3563 12.469 7.3003 12.613 7.2683 12.797C7.2443 12.981 7.2323 13.225 7.2323 13.529V18.701C7.2323 19.037 7.2643 19.313 7.3283 19.529C7.4003 19.737 7.5163 19.901 7.6763 20.021C7.8443 20.133 8.0643 20.213 8.33631 20.261C8.6083 20.301 8.9523 20.321 9.3683 20.321C9.82431 20.321 10.2083 20.297 10.5203 20.249C10.8323 20.193 11.0923 20.101 11.3003 19.973C11.5163 19.837 11.6843 19.653 11.8043 19.421C11.9323 19.181 12.0403 18.873 12.1283 18.497H12.5843L12.4043 20.861ZM15.9511 18.593C15.9511 18.993 15.9671 19.309 15.9991 19.541C16.0311 19.773 16.0911 19.953 16.1791 20.081C16.2751 20.209 16.4071 20.293 16.5751 20.333C16.7511 20.373 16.9791 20.397 17.2591 20.405V20.861H13.3711V20.405C13.6511 20.397 13.8751 20.373 14.0431 20.333C14.2191 20.285 14.3551 20.201 14.4511 20.081C14.5471 19.961 14.6111 19.793 14.6431 19.577C14.6751 19.353 14.6911 19.053 14.6911 18.677V13.805C14.6911 13.469 14.6751 13.193 14.6431 12.977C14.6191 12.753 14.5631 12.577 14.4751 12.449C14.3951 12.321 14.2751 12.233 14.1151 12.185C13.9551 12.129 13.7471 12.093 13.4911 12.077V11.621H17.1391V12.077C16.8831 12.085 16.6751 12.117 16.5151 12.173C16.3631 12.229 16.2431 12.325 16.1551 12.461C16.0751 12.589 16.0191 12.769 15.9871 13.001C15.9631 13.233 15.9511 13.529 15.9511 13.889V18.593ZM22.8995 19.025L25.0115 13.817C25.1315 13.521 25.2155 13.289 25.2635 13.121C25.3115 12.953 25.3355 12.801 25.3355 12.665C25.3355 12.449 25.2675 12.297 25.1315 12.209C25.0035 12.121 24.7595 12.077 24.3995 12.077V11.621H27.3155V12.077C27.1315 12.101 26.9715 12.133 26.8355 12.173C26.7075 12.213 26.5915 12.269 26.4875 12.341C26.3915 12.413 26.3035 12.509 26.2235 12.629C26.1515 12.741 26.0795 12.881 26.0075 13.049L22.7555 20.981H22.3355L19.2395 13.505C19.1355 13.265 19.0315 13.057 18.9275 12.881C18.8315 12.705 18.7235 12.561 18.6035 12.449C18.4835 12.337 18.3475 12.253 18.1955 12.197C18.0435 12.141 17.8635 12.105 17.6555 12.089V11.621H21.5675V12.089C21.3435 12.089 21.1595 12.101 21.0155 12.125C20.8795 12.141 20.7715 12.173 20.6915 12.221C20.6115 12.261 20.5555 12.313 20.5235 12.377C20.4915 12.441 20.4755 12.513 20.4755 12.593C20.4755 12.705 20.4955 12.837 20.5355 12.989C20.5755 13.133 20.6515 13.345 20.7635 13.625L22.8995 19.025ZM30.3417 15.785C30.7737 15.785 31.1337 15.761 31.4217 15.713C31.7177 15.657 31.9497 15.573 32.1177 15.461C32.2937 15.349 32.4177 15.205 32.4897 15.029C32.5697 14.853 32.6097 14.645 32.6097 14.405H33.0297V17.681H32.6097C32.6097 17.441 32.5737 17.233 32.5017 17.057C32.4377 16.881 32.3177 16.737 32.1417 16.625C31.9737 16.505 31.7417 16.417 31.4457 16.361C31.1577 16.297 30.7897 16.265 30.3417 16.265V18.977C30.3417 19.241 30.3737 19.461 30.4377 19.637C30.5017 19.805 30.6097 19.945 30.7617 20.057C30.9217 20.161 31.1297 20.237 31.3857 20.285C31.6417 20.325 31.9577 20.345 32.3337 20.345C32.7577 20.345 33.1177 20.317 33.4137 20.261C33.7097 20.197 33.9577 20.093 34.1577 19.949C34.3577 19.805 34.5177 19.617 34.6377 19.385C34.7577 19.145 34.8577 18.849 34.9377 18.497H35.3937L35.2137 20.861H27.7617V20.405C28.0417 20.397 28.2657 20.373 28.4337 20.333C28.6097 20.293 28.7457 20.225 28.8417 20.129C28.9377 20.033 29.0017 19.897 29.0337 19.721C29.0657 19.545 29.0817 19.317 29.0817 19.037V13.445C29.0817 13.165 29.0657 12.941 29.0337 12.773C29.0097 12.597 28.9537 12.461 28.8657 12.365C28.7857 12.261 28.6657 12.193 28.5057 12.161C28.3457 12.121 28.1377 12.093 27.8817 12.077V11.621H34.8177L34.9257 13.733H34.5057C34.4577 13.413 34.3777 13.153 34.2657 12.953C34.1617 12.745 34.0137 12.581 33.8217 12.461C33.6377 12.341 33.4017 12.257 33.1137 12.209C32.8257 12.161 32.4777 12.137 32.0697 12.137H30.5457C30.4097 12.137 30.3417 12.205 30.3417 12.341V15.785Z" fill="black"/>
</g>
<defs>
<filter id="filter0_d_11_46" x="0.652313" y="11.621" width="38.7414" height="17.36" filterUnits="userSpaceOnUse" color-interpolation-filters="sRGB">
<feFlood flood-opacity="0" result="BackgroundImageFix"/>
<feColorMatrix in="SourceAlpha" type="matrix" values="0 0 0 0 0 0 0 0 0 0 0 0 0 0 0 0 0 0 127 0" result="hardAlpha"/>
<feOffset dy="4"/>
<feGaussianBlur stdDeviation="2"/>
<feComposite in2="hardAlpha" operator="out"/>
<feColorMatrix type="matrix" values="0 0 0 0 0 0 0 0 0 0 0 0 0 0 0 0 0 0 0.25 0"/>
<feBlend mode="normal" in2="BackgroundImageFix" result="effect1_dropShadow_11_46"/>
<feBlend mode="normal" in="SourceGraphic" in2="effect1_dropShadow_11_46" result="shape"/>
</filter>
</defs>
</svg>
